<?xml version="1.0" encoding="UTF-8" standalone="no"?>
<svg
   xmlns:dc="http://purl.org/dc/elements/1.1/"
   xmlns:cc="http://creativecommons.org/ns#"
   xmlns:rdf="http://www.w3.org/1999/02/22-rdf-syntax-ns#"
   xmlns:svg="http://www.w3.org/2000/svg"
   xmlns="http://www.w3.org/2000/svg"
   id="svg8"
   version="1.1"
   viewBox="0 0 31.750004 38.364578"
   height="38.364578mm"
   width="31.750004mm">
  <defs
     id="defs2" />
  <metadata
     id="metadata5">
    <rdf:RDF>
      <cc:Work
         rdf:about="">
        <dc:format>image/svg+xml</dc:format>
        <dc:type
           rdf:resource="http://purl.org/dc/dcmitype/StillImage" />
        <dc:title></dc:title>
      </cc:Work>
    </rdf:RDF>
  </metadata>
  <g
     transform="translate(-25.135414,-99.218753)"
     id="layer1">
    <path
       id="path924"
       d="M 25.135414,137.58333 H 56.885417 V 99.218753 Z"
       style="fill:#000000;fill-opacity:1;stroke-width:0.797902;stroke-linecap:round" />
  </g>
  <g
     transform="translate(-25.135414,-99.218753)"
     id="layer2">
    <g
       style="opacity:0.984066;fill:#ffffff;fill-opacity:1;stroke:#ffffff;stroke-width:0;stroke-miterlimit:4;stroke-dasharray:none;stroke-opacity:1"
       transform="matrix(0.04242828,0,0,0.04242828,39.347678,116.49229)"
       id="g1099">
      <g
         style="fill:#ffffff;fill-opacity:1;stroke:#ffffff;stroke-width:0;stroke-miterlimit:4;stroke-dasharray:none;stroke-opacity:1"
         id="g1036">
	<g
   style="fill:#ffffff;fill-opacity:1;stroke:#ffffff;stroke-width:0;stroke-miterlimit:4;stroke-dasharray:none;stroke-opacity:1"
   id="g1034">
		<g
   style="fill:#ffffff;fill-opacity:1;stroke:#ffffff;stroke-width:0;stroke-miterlimit:4;stroke-dasharray:none;stroke-opacity:1"
   id="g1032">
			<path
   style="fill:#ffffff;fill-opacity:1;stroke:#ffffff;stroke-width:0;stroke-miterlimit:4;stroke-dasharray:none;stroke-opacity:1"
   d="m 354.209,219.028 c -5.132,-5.121 -11.916,-7.881 -19.192,-7.766 -5.668,0.088 -10.92,2.016 -15.207,5.216 -4.354,-10.974 -15.075,-18.754 -27.58,-18.754 -6.629,0 -12.756,2.186 -17.7,5.875 -3.435,-12.577 -14.962,-21.849 -28.613,-21.849 -6.169,0 -11.905,1.894 -16.655,5.13 l 0.001,-81.239 c 0,-16.352 -13.304,-29.655 -29.655,-29.655 -7.916,0 -15.363,3.081 -20.974,8.681 -5.603,5.604 -8.689,13.052 -8.689,20.974 v 125.676 c -2.362,-0.427 -4.772,-0.642 -7.216,-0.642 -14.746,0 -26.743,11.979 -26.743,26.703 0,1.202 0.085,2.432 0.252,3.653 0.816,5.991 -0.968,12.067 -4.895,16.668 l -8.853,10.368 c -8.433,9.867 -10.317,23.835 -4.802,35.582 l 25.936,55.335 c 4.371,9.326 11.205,17.261 19.763,22.948 5.18,3.443 9.424,5.948 12.607,7.444 2.292,1.08 4.219,2.78 5.58,4.925 1.355,2.128 2.071,4.59 2.071,7.12 v 23.756 c 0,1.724 0.685,3.377 1.904,4.596 1.219,1.219 2.872,1.904 4.596,1.904 h 154.447 c 3.59,0 6.5,-2.91 6.5,-6.5 0,-14.514 2.064,-28.936 6.136,-42.864 3.161,-10.815 4.764,-22.013 4.764,-33.285 V 237.809 c -0.002,-7.095 -2.764,-13.764 -7.783,-18.781 z m -9.461,179.637 c -3.809,13.032 -5.999,26.462 -6.53,40.011 H 196.643 V 421.42 c 0,-5.007 -1.419,-9.883 -4.099,-14.092 -2.677,-4.222 -6.485,-7.581 -11.018,-9.716 -2.576,-1.211 -6.361,-3.461 -10.946,-6.509 -6.575,-4.369 -11.826,-10.468 -15.187,-17.638 l -25.938,-55.339 c -3.351,-7.138 -2.207,-15.622 2.917,-21.617 l 8.855,-10.372 c 6.329,-7.417 9.204,-17.208 7.888,-26.868 -0.089,-0.651 -0.132,-1.27 -0.132,-1.894 0,-7.556 6.165,-13.703 13.743,-13.703 2.469,0 4.884,0.323 7.216,0.962 v 67.85 c 0,3.59 2.91,6.5 6.5,6.5 3.59,0 6.5,-2.91 6.5,-6.5 V 105.639 c 0,-4.449 1.733,-8.633 4.877,-11.777 3.151,-3.146 7.337,-4.878 11.786,-4.878 9.184,0 16.655,7.471 16.655,16.655 l -0.001,136.086 c 0,3.59 2.91,6.5 6.5,6.5 3.59,0 6.5,-2.91 6.5,-6.5 v -30.488 c 0.091,-9.107 7.527,-16.489 16.656,-16.489 9.185,0 16.656,7.472 16.656,16.656 v 15.975 c 0,3.59 2.91,6.5 6.5,6.5 3.59,0 6.5,-2.91 6.5,-6.5 0,-9.185 7.473,-16.657 16.657,-16.657 9.184,0 16.656,7.472 16.656,16.658 l 0.002,10.879 c 10e-4,3.59 2.911,6.499 6.501,6.499 3.589,0 6.499,-2.91 6.499,-6.5 0,-7.605 5.98,-13.885 13.332,-14 3.685,-0.063 7.185,1.353 9.803,3.966 2.558,2.557 3.967,5.961 3.967,9.583 v 131.22 h 0.002 c 0,10.036 -1.427,20.008 -4.242,29.638 z"
   id="path1020" />

			<path
   style="fill:#ffffff;fill-opacity:1;stroke:#ffffff;stroke-width:0;stroke-miterlimit:4;stroke-dasharray:none;stroke-opacity:1"
   d="m 199.607,48.847 c 3.59,0 6.5,-2.91 6.5,-6.5 V 6.5 c 0,-3.59 -2.91,-6.5 -6.5,-6.5 -3.59,0 -6.5,2.91 -6.5,6.5 v 35.847 c 0,3.59 2.91,6.5 6.5,6.5 z"
   id="path1022" />

			<path
   style="fill:#ffffff;fill-opacity:1;stroke:#ffffff;stroke-width:0;stroke-miterlimit:4;stroke-dasharray:none;stroke-opacity:1"
   d="m 246.832,68.871 c 1.663,0 3.327,-0.635 4.596,-1.904 L 276.776,41.62 c 2.539,-2.538 2.539,-6.654 10e-4,-9.192 -2.539,-2.538 -6.655,-2.539 -9.192,0 l -25.348,25.347 c -2.539,2.538 -2.539,6.654 -0.001,9.192 1.268,1.269 2.931,1.904 4.596,1.904 z"
   id="path1024" />

			<path
   style="fill:#ffffff;fill-opacity:1;stroke:#ffffff;stroke-width:0;stroke-miterlimit:4;stroke-dasharray:none;stroke-opacity:1"
   d="m 259.566,109.923 c 0,3.59 2.91,6.5 6.5,6.5 h 35.847 c 3.59,0 6.5,-2.91 6.5,-6.5 0,-3.59 -2.91,-6.5 -6.5,-6.5 h -35.847 c -3.59,0 -6.5,2.91 -6.5,6.5 z"
   id="path1026" />

			<path
   style="fill:#ffffff;fill-opacity:1;stroke:#ffffff;stroke-width:0;stroke-miterlimit:4;stroke-dasharray:none;stroke-opacity:1"
   d="m 138.531,108.805 c 0,-3.59 -2.91,-6.5 -6.5,-6.5 H 96.185 c -3.59,0 -6.5,2.91 -6.5,6.5 0,3.59 2.91,6.5 6.5,6.5 h 35.846 c 3.59,0 6.5,-2.91 6.5,-6.5 z"
   id="path1028" />

			<path
   style="fill:#ffffff;fill-opacity:1;stroke:#ffffff;stroke-width:0;stroke-miterlimit:4;stroke-dasharray:none;stroke-opacity:1"
   d="m 147.459,66.177 c 1.269,1.269 2.933,1.904 4.596,1.904 1.663,0 3.327,-0.635 4.596,-1.904 2.539,-2.539 2.539,-6.654 0,-9.192 L 131.303,31.638 c -2.538,-2.539 -6.654,-2.539 -9.192,0 -2.539,2.539 -2.539,6.654 0,9.192 z"
   id="path1030" />

		</g>

	</g>

</g>
      <g
         style="fill:#ffffff;fill-opacity:1;stroke:#ffffff;stroke-width:0;stroke-miterlimit:4;stroke-dasharray:none;stroke-opacity:1"
         id="g1038">
</g>
      <g
         style="fill:#ffffff;fill-opacity:1;stroke:#ffffff;stroke-width:0;stroke-miterlimit:4;stroke-dasharray:none;stroke-opacity:1"
         id="g1040">
</g>
      <g
         style="fill:#ffffff;fill-opacity:1;stroke:#ffffff;stroke-width:0;stroke-miterlimit:4;stroke-dasharray:none;stroke-opacity:1"
         id="g1042">
</g>
      <g
         style="fill:#ffffff;fill-opacity:1;stroke:#ffffff;stroke-width:0;stroke-miterlimit:4;stroke-dasharray:none;stroke-opacity:1"
         id="g1044">
</g>
      <g
         style="fill:#ffffff;fill-opacity:1;stroke:#ffffff;stroke-width:0;stroke-miterlimit:4;stroke-dasharray:none;stroke-opacity:1"
         id="g1046">
</g>
      <g
         style="fill:#ffffff;fill-opacity:1;stroke:#ffffff;stroke-width:0;stroke-miterlimit:4;stroke-dasharray:none;stroke-opacity:1"
         id="g1048">
</g>
      <g
         style="fill:#ffffff;fill-opacity:1;stroke:#ffffff;stroke-width:0;stroke-miterlimit:4;stroke-dasharray:none;stroke-opacity:1"
         id="g1050">
</g>
      <g
         style="fill:#ffffff;fill-opacity:1;stroke:#ffffff;stroke-width:0;stroke-miterlimit:4;stroke-dasharray:none;stroke-opacity:1"
         id="g1052">
</g>
      <g
         style="fill:#ffffff;fill-opacity:1;stroke:#ffffff;stroke-width:0;stroke-miterlimit:4;stroke-dasharray:none;stroke-opacity:1"
         id="g1054">
</g>
      <g
         style="fill:#ffffff;fill-opacity:1;stroke:#ffffff;stroke-width:0;stroke-miterlimit:4;stroke-dasharray:none;stroke-opacity:1"
         id="g1056">
</g>
      <g
         style="fill:#ffffff;fill-opacity:1;stroke:#ffffff;stroke-width:0;stroke-miterlimit:4;stroke-dasharray:none;stroke-opacity:1"
         id="g1058">
</g>
      <g
         style="fill:#ffffff;fill-opacity:1;stroke:#ffffff;stroke-width:0;stroke-miterlimit:4;stroke-dasharray:none;stroke-opacity:1"
         id="g1060">
</g>
      <g
         style="fill:#ffffff;fill-opacity:1;stroke:#ffffff;stroke-width:0;stroke-miterlimit:4;stroke-dasharray:none;stroke-opacity:1"
         id="g1062">
</g>
      <g
         style="fill:#ffffff;fill-opacity:1;stroke:#ffffff;stroke-width:0;stroke-miterlimit:4;stroke-dasharray:none;stroke-opacity:1"
         id="g1064">
</g>
      <g
         style="fill:#ffffff;fill-opacity:1;stroke:#ffffff;stroke-width:0;stroke-miterlimit:4;stroke-dasharray:none;stroke-opacity:1"
         id="g1066">
</g>
    </g>
  </g>
</svg>
