<?xml version="1.0" encoding="UTF-8" standalone="no"?>
<svg
   xmlns:dc="http://purl.org/dc/elements/1.1/"
   xmlns:cc="http://creativecommons.org/ns#"
   xmlns:rdf="http://www.w3.org/1999/02/22-rdf-syntax-ns#"
   xmlns:svg="http://www.w3.org/2000/svg"
   xmlns="http://www.w3.org/2000/svg"
   id="svg5157"
   version="1.1"
   viewBox="0 0 43.139183 1.1534635"
   height="1.1534635mm"
   width="43.139183mm">
  <defs
     id="defs5151" />
  <metadata
     id="metadata5154">
    <rdf:RDF>
      <cc:Work
         rdf:about="">
        <dc:format>image/svg+xml</dc:format>
        <dc:type
           rdf:resource="http://purl.org/dc/dcmitype/StillImage" />
        <dc:title></dc:title>
      </cc:Work>
    </rdf:RDF>
  </metadata>
  <g
     transform="translate(-57.336799,-97.553499)"
     id="layer1">
    <path
       id="path4574"
       d="m 57.739187,97.991119 c 1.498333,0.0644 3.023368,0.0998 4.500015,0.0888 1.293788,-0.01 2.549568,0.0507 3.825348,0.093 1.296997,0.043 2.508611,-0.3331 3.784973,-0.18663 1.408724,0.16166 2.663932,0.12923 4.093208,0.18977 1.44246,0.0611 2.905339,-0.017 4.32535,0.005 1.359806,0.021 2.63702,0.0671 3.961341,0.0612 1.440485,-0.006 2.726672,-0.17401 4.181592,-0.12041 1.349274,0.0497 2.564844,0.0264 3.91174,0.13794 1.141,0.0945 2.293453,-0.24549 3.437186,-0.10518 1.259864,0.15456 2.543276,0.17113 3.801203,8e-5 0.704786,-0.0958 2.518057,-0.0238 2.518057,0.11248 0,0 0,0.0125 0,0.0188 0,0.006 0,0.0186 0,0.0186"
       style="opacity:1;fill:#fffaf0;fill-opacity:1;stroke:#333333;stroke-width:0.79348546;stroke-linecap:round;stroke-linejoin:round;stroke-miterlimit:4;stroke-dasharray:none;stroke-opacity:1" />
  </g>
</svg>
